<?xml version="1.0" encoding="utf-8" standalone="no"?>
<svg xmlns="http://www.w3.org/2000/svg" viewBox="0 0 208 64">
  <defs>
    <style>.cls-1{fill:#fff;}</style>
  </defs>
  <title>Pekin-insurance-logo-white</title>
  <g id="icon">
    <path class="cls-1" d="M50.48,48.88l-.55,0a40.64,40.64,0,0,1-8.58,8.59c-.84.55-1.71,1.09-2.64,1.61l-.79.46L37.13,59A42.76,42.76,0,0,1,33,56.4c-3.11-2.51-7-6.3-9.16-10.78a4.84,4.84,0,0,1-.49.14v0a3.85,3.85,0,0,1-.71.08,2,2,0,0,1-1.17.46,3.27,3.27,0,0,1-.88.55c4.1,8.91,13.93,15,15.39,15.81.09,0,1.84,1,1.84,1l1.89-1c1.46-.88,10.08-6.23,14.51-14.18a9.47,9.47,0,0,1-3.18.42Z" />
    <path class="cls-1" d="M19.35,37.22v0c.5-.13,1-.25,1.34-.38a0,0,0,0,1,0,0h0a2.9,2.9,0,0,1-.19-.9,2.59,2.59,0,0,1,.35-1.44l.38-.5h0a2.88,2.88,0,0,1,.5-.41,40.78,40.78,0,0,1,.92-7.87l.09-.25,15.05-4.76,3.35,1,.16-.24.09,0a26.24,26.24,0,0,1,2-2.51l-5.56-1.75L20.1,22.86l-.5,1.76a40.27,40.27,0,0,0-1.17,12.76Z" />
    <path class="cls-1" d="M55.53,42.65a.64.64,0,0,1,0-.07,9.13,9.13,0,0,0,.9.19A38.12,38.12,0,0,0,57,29.22a3.92,3.92,0,0,1-.75.71,2.23,2.23,0,0,1-1,1.2,2.29,2.29,0,0,1-.27.14,2.24,2.24,0,0,1-.25.71,2.64,2.64,0,0,1-.79.84,33.3,33.3,0,0,1-.8,9.07C53.94,42.19,54.78,42.44,55.53,42.65Z" />
    <path class="cls-1" d="M37.71,56.91s0,0,.08,0l.09,0L38,57l.09,0,.08,0s0,0,.08,0a37,37,0,0,0,9.5-8.32l-.21-.13a10.56,10.56,0,0,0-4-1.71,3.42,3.42,0,0,1-1.13.25,2.71,2.71,0,0,1-1.46-.42,11.34,11.34,0,0,0-4.06-.8,6.31,6.31,0,0,1-1.13-.16,19.65,19.65,0,0,0-7.78,2.59A36.77,36.77,0,0,0,37.71,56.91Z" />
    <path class="cls-1" d="M72.1,22.57A1.71,1.71,0,0,0,74,21.23,1,1,0,0,0,73.31,20a1.23,1.23,0,0,0,.63-.92c.16-1-.51-1.3-1.38-1.3h-.8L71,22.57Zm.08-4.23h.21c.67,0,1.13.09,1,.8s-.67.79-1.25.79h-.21Zm-.29,2.05h.46c.58,0,1.29.09,1.17.84s-.8.88-1.38.88h-.55Z" />
    <path class="cls-1" d="M77,22.65a1.77,1.77,0,0,0,1.51-.84l-.38-.25a1.22,1.22,0,0,1-1,.63.82.82,0,0,1-.84-1,22.83,22.83,0,0,0,2.34,0c.21-.88-.16-1.68-1.13-1.68a1.72,1.72,0,0,0-1.71,1.59A1.21,1.21,0,0,0,77,22.65ZM77.45,20a.76.76,0,0,1,.75.8H76.4A1.22,1.22,0,0,1,77.45,20Z" />
    <polygon class="cls-1" points="80.67 24.24 83.6 19.6 83.01 19.6 81.72 21.73 81 19.6 80.42 19.6 81.38 22.27 80.08 24.24 80.67 24.24" />
    <path class="cls-1" d="M86.15,22.65A1.88,1.88,0,0,0,88,21.1a1.28,1.28,0,0,0-1.3-1.59,1.89,1.89,0,0,0-1.84,1.59A1.3,1.3,0,0,0,86.15,22.65Zm-.84-1.55A1.3,1.3,0,0,1,86.53,20a.87.87,0,0,1,.87,1.08,1.25,1.25,0,0,1-1.21,1.09A.87.87,0,0,1,85.31,21.1Z" />
    <path class="cls-1" d="M90.42,21.15c.08-.55.21-1.18.92-1.18s.54.42.46.92l-.25,1.68h.5l.29-1.76c.13-.71,0-1.3-.79-1.3a1.23,1.23,0,0,0-.92.46l0-.37h-.5l-.46,3h.5Z" />
    <path class="cls-1" d="M96.9,20.06a1.07,1.07,0,0,0-.92-.5,1.78,1.78,0,0,0-1.67,1.59,1.21,1.21,0,0,0,1.17,1.54,1.48,1.48,0,0,0,1.13-.5l-.13.42H97l.84-5.23h-.5Zm-.13,1a1.21,1.21,0,0,1-1.17,1.13c-.62,0-.87-.54-.79-1.13A1.29,1.29,0,0,1,95.94,20,.85.85,0,0,1,96.77,21.06Z" />
    <polygon class="cls-1" points="103.01 22.61 103.43 20.06 103.97 20.06 104.05 19.6 103.51 19.6 103.68 18.55 103.17 18.55 103.01 19.64 102.67 19.64 102.59 20.1 102.92 20.1 102.5 22.61 103.01 22.61" />
    <path class="cls-1" d="M106,21.15c.08-.55.21-1.18.92-1.18s.54.42.46.92l-.25,1.68h.5l.29-1.76c.13-.71,0-1.3-.79-1.3a1.17,1.17,0,0,0-.92.46l.41-2.59-.5,0-.83,5.23h.5Z" />
    <path class="cls-1" d="M111,22.65a1.74,1.74,0,0,0,1.5-.84l-.37-.25a1.22,1.22,0,0,1-1,.63.82.82,0,0,1-.83-1,22.83,22.83,0,0,0,2.34,0c.21-.88-.17-1.68-1.13-1.68a1.72,1.72,0,0,0-1.71,1.59A1.21,1.21,0,0,0,111,22.65Zm.42-2.68a.76.76,0,0,1,.75.8h-1.8A1.22,1.22,0,0,1,111.46,20Z" />
    <path class="cls-1" d="M118.82,22.65a1.74,1.74,0,0,0,1.5-.84l-.37-.25a1.22,1.22,0,0,1-1,.63.82.82,0,0,1-.83-1,22.83,22.83,0,0,0,2.34,0c.21-.88-.17-1.68-1.13-1.68a1.72,1.72,0,0,0-1.71,1.59A1.21,1.21,0,0,0,118.82,22.65Zm.42-2.68a.76.76,0,0,1,.75.8h-1.8A1.22,1.22,0,0,1,119.24,20Z" />
    <polygon class="cls-1" points="122.42 22.57 123.55 21.35 124.3 22.57 124.93 22.57 123.92 20.98 125.22 19.6 124.59 19.6 123.67 20.6 123.04 19.6 122.42 19.6 123.3 20.98 121.79 22.57 122.42 22.57" />
    <path class="cls-1" d="M129.82,21.1a1.24,1.24,0,0,0-1.17-1.59,1.54,1.54,0,0,0-1.13.51l.13-.42h-.51l-.75,4.64h.5l.34-2.09a1,1,0,0,0,.92.5A1.75,1.75,0,0,0,129.82,21.1Zm-1.67,1.09c-.63,0-.88-.54-.8-1.13A1.32,1.32,0,0,1,128.48,20a.86.86,0,0,1,.84,1.09A1.22,1.22,0,0,1,128.15,22.19Z" />
    <path class="cls-1" d="M132.75,22.65a1.74,1.74,0,0,0,1.5-.84l-.37-.25a1.22,1.22,0,0,1-1,.63.82.82,0,0,1-.83-1,22.83,22.83,0,0,0,2.34,0c.21-.88-.17-1.68-1.13-1.68a1.72,1.72,0,0,0-1.71,1.59A1.21,1.21,0,0,0,132.75,22.65Zm.42-2.68a.76.76,0,0,1,.75.8h-1.8A1.22,1.22,0,0,1,133.17,20Z" />
    <path class="cls-1" d="M137.39,22.65a1.77,1.77,0,0,0,1-.29l.12-.67a1.48,1.48,0,0,1-1,.5.85.85,0,0,1-.84-1.09A1.25,1.25,0,0,1,137.85,20a1,1,0,0,1,.84.5l.08-.76a1.62,1.62,0,0,0-.88-.29,1.92,1.92,0,0,0-1.84,1.59A1.32,1.32,0,0,0,137.39,22.65Z" />
    <polygon class="cls-1" points="140.95 22.61 141.37 20.1 141.91 20.1 141.99 19.64 141.45 19.64 141.62 18.55 141.11 18.55 140.95 19.64 140.65 19.64 140.57 20.1 140.86 20.1 140.44 22.61 140.95 22.61" />
    <path class="cls-1" d="M144.42,22.65a1.74,1.74,0,0,0,1.5-.84l-.37-.25a1.22,1.22,0,0,1-1,.63.82.82,0,0,1-.83-1,22.83,22.83,0,0,0,2.34,0c.21-.88-.17-1.68-1.13-1.68a1.72,1.72,0,0,0-1.71,1.59A1.21,1.21,0,0,0,144.42,22.65ZM144.8,20a.76.76,0,0,1,.75.8h-1.8A1.22,1.22,0,0,1,144.8,20Z" />
    <path class="cls-1" d="M148.94,22.69a1.5,1.5,0,0,0,1.13-.5l-.13.42h.5l.84-5.23h-.5l-.42,2.68a1,1,0,0,0-.92-.5,1.78,1.78,0,0,0-1.67,1.59A1.21,1.21,0,0,0,148.94,22.69Zm-.67-1.63A1.38,1.38,0,0,1,149.4,20a.85.85,0,0,1,.83,1.09,1.21,1.21,0,0,1-1.17,1.13C148.43,22.19,148.18,21.65,148.27,21.06Z" />
    <path class="cls-1" d="M151.91,22.69a.43.43,0,0,0,.41-.37c0-.21-.12-.34-.29-.34a.42.42,0,0,0-.42.34A.29.29,0,0,0,151.91,22.69Z" />
    <path class="cls-1" d="M91.42,29.59H71.17a.65.65,0,0,0-.62.63V50.93a.65.65,0,0,0,.62.63h5.4a.65.65,0,0,0,.63-.63V43.48H91.42c4.89,0,5.94-2.51,5.94-4.64v-4.6C97.36,32.1,96.36,29.59,91.42,29.59Zm-2.51,4.82a4.29,4.29,0,0,1,1.51.16c.12,0,.37.21.37.88v2.22c0,.71-.25.83-.33.88a4.76,4.76,0,0,1-1.51.16H77.2l0-4.3Z" />
    <path class="cls-1" d="M125.93,46.37H107.61V42.48H117.9a.65.65,0,0,0,.63-.63V38.34a.65.65,0,0,0-.63-.63H107.61V34.36h18.07a.65.65,0,0,0,.63-.62V30.22a.65.65,0,0,0-.63-.63H101.46a.65.65,0,0,0-.63.63V50.93a.65.65,0,0,0,.63.63h24.43a.7.7,0,0,0,.67-.67V47A.65.65,0,0,0,125.93,46.37Z" />
    <path class="cls-1" d="M160.4,50.38,143.67,40l14.8-9.2a.68.68,0,0,0,.25-.72.55.55,0,0,0-.58-.46h-8a.44.44,0,0,0-.34.09l-12.13,8V30.22a.65.65,0,0,0-.62-.63h-5.57a.65.65,0,0,0-.62.63V50.93a.65.65,0,0,0,.62.63h5.61a.65.65,0,0,0,.63-.63V43l13.17,8.49a.85.85,0,0,0,.34.09h8.82a.62.62,0,0,0,.59-.46A.59.59,0,0,0,160.4,50.38Z" />
    <rect class="cls-1" x="162.7" y="29.59" width="6.73" height="21.96" rx="0.63" />
    <path class="cls-1" d="M202.35,29.64h-4.93a.64.64,0,0,0-.63.62V41.14c0,.33,0,1,.13,2l-1.59-1.26L178.68,29.72a.72.72,0,0,0-.38-.13h-3.76a.65.65,0,0,0-.63.63V50.93a.65.65,0,0,0,.63.63h4.93a.65.65,0,0,0,.63-.63V39.72c0-.46,0-1-.08-1.72.29.21.54.42.83.63l17.36,12.8a.72.72,0,0,0,.38.13h3.76A.64.64,0,0,0,203,51V30.26A.64.64,0,0,0,202.35,29.64Z" />
    <polygon class="cls-1" points="129.03 63.73 130.11 63.73 131.28 57.83 130.2 57.83 129.03 63.73" />
    <polygon class="cls-1" points="138.48 61.8 137.01 57.83 135.97 57.83 134.84 63.73 135.88 63.73 136.64 59.75 138.1 63.73 139.15 63.73 140.28 57.83 139.23 57.83 138.48 61.8" />
    <path class="cls-1" d="M146.59,58.75a.86.86,0,0,1,1,.88l1,0a1.82,1.82,0,0,0-.58-1.34,2.19,2.19,0,0,0-1.43-.46,1.84,1.84,0,0,0-1.38.46,1.58,1.58,0,0,0-.5,1.25,1.63,1.63,0,0,0,.13.67,1.49,1.49,0,0,0,.42.5,7.16,7.16,0,0,0,1,.59,2.19,2.19,0,0,1,.75.46.4.4,0,0,1,.17.38.61.61,0,0,1-.25.54,1.22,1.22,0,0,1-.75.21,1.34,1.34,0,0,1-.63-.13.68.68,0,0,1-.33-.29,1.16,1.16,0,0,1-.13-.67l-1,0a2.6,2.6,0,0,0,.17,1.09,1.37,1.37,0,0,0,.71.75,2.3,2.3,0,0,0,1.22.3,2.27,2.27,0,0,0,1.54-.55,1.87,1.87,0,0,0,.59-1.38,1.63,1.63,0,0,0-.13-.67,1.17,1.17,0,0,0-.37-.5,6.62,6.62,0,0,0-1.05-.58,3.58,3.58,0,0,1-.79-.46.53.53,0,0,1-.21-.42.58.58,0,0,1,.21-.46A.82.82,0,0,1,146.59,58.75Z" />
    <path class="cls-1" d="M156.17,61.05a5,5,0,0,1-.29,1.17,1.12,1.12,0,0,1-.42.46,1,1,0,0,1-.63.17.79.79,0,0,1-.62-.21.7.7,0,0,1-.25-.59v-.2l.16-.8.59-3.22h-1.09l-.5,3.1A5.34,5.34,0,0,0,153,62a1.77,1.77,0,0,0,.5,1.34,1.86,1.86,0,0,0,1.38.5,2.33,2.33,0,0,0,1.26-.33,2.24,2.24,0,0,0,.79-1,7.77,7.77,0,0,0,.38-1.46l.63-3.22H156.8Z" />
    <path class="cls-1" d="M166.13,58a2.24,2.24,0,0,0-1-.17h-2.38l-1.13,5.9h1.09l.58-2.39h.46a1.09,1.09,0,0,1,.46,0,.57.57,0,0,1,.26.2,2.88,2.88,0,0,1,.37.8c.25.71.42,1.17.46,1.34h1.17a14.42,14.42,0,0,0-.79-1.88,2.31,2.31,0,0,0-.42-.63,1.86,1.86,0,0,0,1.21-.59,1.71,1.71,0,0,0,.42-1.25,1.88,1.88,0,0,0-.21-.88A1.49,1.49,0,0,0,166.13,58Zm-.59,2a.8.8,0,0,1-.5.34,6.37,6.37,0,0,1-1.13.08h-.58l.33-1.55h1.21c.34,0,.55,0,.63.09a.58.58,0,0,1,.25.5A.92.92,0,0,1,165.54,60Z" />
    <path class="cls-1" d="M173.24,57.83l-3,5.9h1.13l.62-1.3h2.14l.17,1.3h1l-.88-5.9Zm-.75,3.6L173.66,59l.29,2.39Z" />
    <polygon class="cls-1" points="183.24 61.8 181.77 57.83 180.73 57.83 179.6 63.73 180.64 63.73 181.4 59.75 182.86 63.73 183.91 63.73 185.03 57.83 183.99 57.83 183.24 61.8" />
    <path class="cls-1" d="M191.1,59a1.35,1.35,0,0,1,.8-.25.83.83,0,0,1,.66.21,1,1,0,0,1,.34.75l1-.12a2.27,2.27,0,0,0-.67-1.43,2,2,0,0,0-1.38-.5,2.64,2.64,0,0,0-1.38.42,3.07,3.07,0,0,0-1.05,1.26,4.08,4.08,0,0,0-.42,1.92,2.74,2.74,0,0,0,.59,1.92,1.86,1.86,0,0,0,1.5.63,2.37,2.37,0,0,0,1.51-.5,3,3,0,0,0,1-1.55l-1.09-.17a2.49,2.49,0,0,1-.46.88,1.17,1.17,0,0,1-.79.3,1,1,0,0,1-.75-.38,1.49,1.49,0,0,1-.34-1.09,3.85,3.85,0,0,1,.25-1.38A1.82,1.82,0,0,1,191.1,59Z" />
    <polygon class="cls-1" points="197.75 63.73 197.75 63.77 201.98 63.77 202.14 62.77 199.05 62.77 199.34 61.18 202.1 61.18 202.31 60.17 199.55 60.17 199.8 58.83 202.65 58.83 202.85 57.83 198.88 57.83 197.75 63.73" />
    <path class="cls-1" d="M153.5,18.72h.16a.29.29,0,0,1,.3.21.87.87,0,0,0,.12.33h.29s0-.12-.08-.33a.44.44,0,0,0-.25-.34.34.34,0,0,0,.29-.33.32.32,0,0,0-.12-.29.59.59,0,0,0-.46-.13c-.25,0-.42,0-.55,0v1.38h.34Zm.08-.67h.17c.21,0,.29.08.29.21s-.17.21-.34.21h-.16Z" />
    <path class="cls-1" d="M153.75,19.93a1.38,1.38,0,1,0,0-2.76,1.38,1.38,0,1,0,0,2.76Zm-.05-2.51a1.09,1.09,0,0,1,1.09,1.13,1.07,1.07,0,0,1-1,1.09,1.06,1.06,0,0,1-1.09-1.09A1.08,1.08,0,0,1,153.7,17.42Z" />
    <path class="cls-1" d="M68.54,11.94c-1.34.38-1-.12-1-.12C72.47,9.14,71.05,9.27,71,9.27c-6.9,2.42-7.87,2.59-7.82,2.42C72.72,6.63,71.55,6,71.55,6c-2,.17-9.79,4.94-9.83,4.94,9-6.15,8-7.74,8-7.74-1.42,1.26-9.24,6.86-9.24,6.9C68,3.53,67.08.65,67.08.69A38.53,38.53,0,0,1,59,9.47C64.44,3.91,63.65.06,63.69.06c-4,7.79-6.87,10.13-7,10.28C60.59,5.54,60,2.82,60,2.78c-3.43,9.41-13.72,15.73-13.67,15.69a5,5,0,0,0-2.21,1.63h0a13.93,13.93,0,0,0-.92,1.09l0,.07c-.14.17-.26.34-.39.51l-.06.09h0l-.21.29h0c-1.09,1.5-1.92,2.89-2,2.89a26,26,0,0,0-3.39,3.89,8.41,8.41,0,0,1-3.51,3.26,19.36,19.36,0,0,0-2.18,1c-6-.67-7.44.92-7.48,1-1.69.24-2.1,1-2.14,1.63a2.36,2.36,0,0,0,0,.46v-.15a2.77,2.77,0,0,0,.13.53c.17.46.33.17.38.17.08-1.42,2.92.37,2.84.37a3.92,3.92,0,0,0-2.76.34,7.91,7.91,0,0,1-1.14.52l-.38.14-.3.09c-.36.1-.72.18-1.07.25h0a26.67,26.67,0,0,1-3.34.41,5.88,5.88,0,0,0-3.56,1c-6,4.1-7.32,3.85-7.36,3.81A6.66,6.66,0,0,1,.69,41.18c-2.76,3.39,3.64,3.64,3.56,3.56,1.21-1.13,1.13-.3,1.17-.34-.38,1.72,1.76.13,1.76.17.25.54-.88,2.26-1,2.26,1,0,3.26-1.59,3.22-1.59a17.26,17.26,0,0,1,0,2A7.48,7.48,0,0,0,11.86,46c-.33,1,.92.59.92.63,2.09-1.13,2.09-.33,2.09-.33a25.47,25.47,0,0,1,4.06-.51,2.4,2.4,0,0,0,1.22-.2l0,.08A1.61,1.61,0,0,0,21,45l.18.05a.85.85,0,0,0,.26,0c.46,0,.75-.46.67-.5a1.36,1.36,0,0,0,.42,0,1.26,1.26,0,0,0,.38,0l0,0,.38-.1.1,0h0c.31-.1.53-.2.55-.2a1.61,1.61,0,0,0,2,0c1.17.34,1.42-.21,1.42-.17a2.32,2.32,0,0,0,1.84.09c1.13.21,1,0,1-.17.84.25,1.34-.12,1.3-.25,1.3.25,1.42-.21,1.42-.21l1.17,0a4.61,4.61,0,0,0,2.64,1.09,12.6,12.6,0,0,1,4.64,1,1.41,1.41,0,0,0,1.55,0c1.63-.37,5.31,2,5.27,1.93a18.23,18.23,0,0,0,4.88,0,4.49,4.49,0,0,0,.73-.19h0l.1,0c.9-.35.83-.83.86-.83s.33,0,.46,0v0c.75-.19.58-.8.43-1.1,0,0,0,0,0,0a.36.36,0,0,0-.09-.13h.13v0c1.73-.2.45-1,.41-1-.3,0-.63-.13-1-.21a.24.24,0,0,1,0-.08A23.83,23.83,0,0,1,52.77,43a.32.32,0,0,0,0,.09c-2.34-.79-4.61-1.76-4.61-1.76l-.34-.67s-.63-1-.67-1.09c.38,0,.21-1.29.17-1.25,1-.25,1.09-.88,1.09-.92-.8-1.13-.3-1.09-.34-1.13a.47.47,0,0,0,.8-.34c1,.17,1.17-1.13,1.17-1.17,1,.42,1.17-1,1.17-1.13.71.21,1.46-1.71,1.34-1.71a1.27,1.27,0,0,0,1.13-1.59l.08,0c0,.14,0,.29,0,.44a1,1,0,0,0,0-.42,2.18,2.18,0,0,0,1-.43h0a.23.23,0,0,0,.07-.07.46.46,0,0,0,.07-.07h0a.73.73,0,0,0,.17-.59,3.82,3.82,0,0,0,.8-.54v0a1.12,1.12,0,0,0,.47-.89,1.17,1.17,0,0,0,1.17-1.54c1.25,0,.92-1.42.92-1.46,1.59-.46,1-1.46,1-1.46,1.88-.17,1.3-2.14,1.26-2.14,1.08-.08.75-1,.75-1,1-.13,1-.92.92-.92,2.89.25,2.26-1.72,2.26-1.72,1.92-1.38.92-1.46.92-1.42,2.21-1.71,1.63-1.88,1.59-1.88-1.05,0,0-.75,0-.75C69.29,12.11,68.54,12,68.54,11.94Z" />
    <path class="cls-1" d="M206,29.51a2,2,0,0,0-2.05,2,2,2,0,0,0,2.05,2,2,2,0,1,0,0-4Zm0,3.56a1.55,1.55,0,0,1-1.55-1.59A1.6,1.6,0,0,1,206,29.89a1.53,1.53,0,0,1,1.55,1.59A1.55,1.55,0,0,1,206,33.07Z" />
    <path class="cls-1" d="M206.41,31.56v0c.25-.08.42-.21.42-.46a.5.5,0,0,0-.21-.42,1.11,1.11,0,0,0-.67-.17,3.1,3.1,0,0,0-.75.09v2h.46v-.75h.21c.25,0,.37.08.41.29s.13.42.17.5h.46a1.26,1.26,0,0,1-.16-.5C206.7,31.77,206.62,31.6,206.41,31.56Zm-.54-.12h-.21v-.55s.12,0,.25,0c.29,0,.42.13.42.29S206.12,31.44,205.87,31.44Z" />
  </g>
</svg>